<svg width="141" height="143" viewBox="0 0 141 143" fill="none" xmlns="http://www.w3.org/2000/svg">
<path d="M73.1525 33.1678C71.5993 34.8204 70.7792 36.6999 70.717 38.7595C70.6083 42.4252 73.0407 44.7084 73.5284 45.1247C75.0558 46.419 77.0003 47.1164 79.0021 47.088C79.3821 47.0883 79.7618 47.0655 80.1391 47.0197C84.5193 46.5133 86.9734 42.9626 88.0203 41.4466C88.2036 41.1826 88.3775 40.9123 88.5391 40.6389C90.5654 41.8831 92.6536 43.0236 94.7956 44.0561C107.051 49.9584 117.209 52.1734 124.373 53.0898C129.362 53.7297 134.087 53.8851 140.946 54.4411V54.407C133.18 23.5997 105.268 0.801041 72.0466 0.801041C32.8021 0.801041 0.988343 32.6148 0.988343 71.8593C0.963875 90.3904 8.20294 108.193 21.1527 121.449C22.6023 120.679 23.8727 119.612 24.8805 118.317C25.9906 116.898 26.8856 115.322 27.5366 113.642C28.8636 114.326 30.3339 114.684 31.8267 114.689C35.9148 114.689 38.8815 111.967 39.5091 111.34C42.0688 108.783 42.5627 105.748 42.8019 104.282C43.28 101.267 42.8462 98.177 41.5562 95.4098C41.3836 95.0357 41.0695 94.7456 40.683 94.6031C40.2964 94.4607 39.8691 94.4776 39.4951 94.6502C39.121 94.8228 38.8309 95.137 38.6884 95.5235C38.546 95.9101 38.5629 96.3374 38.7355 96.7114C39.7703 98.919 40.1229 101.385 39.7482 103.794C39.5463 105.021 39.1767 107.305 37.3252 109.153C37.0145 109.464 34.0696 112.259 30.4318 111.427C29.1354 111.107 27.9593 110.419 27.0457 109.445C26.8749 109.215 26.7506 109.035 26.6792 108.926C24.5543 105.68 24.9582 102.269 25.1508 100.632C25.8777 94.5275 30.3324 86.8793 38.4031 84.509C40.3043 83.9499 46.9119 82.4059 52.1122 86.0033C53.9139 87.2459 54.8552 88.6438 55.6846 89.874C56.5141 91.1042 57.1851 92.1013 58.6762 93.0985C60.3429 94.1736 62.255 94.8084 64.2338 94.9438C65.1553 95.0253 66.0188 95.428 66.6735 96.0816C67.3283 96.7352 67.7325 97.598 67.8156 98.5194C68.0144 100.731 67.9056 104.909 64.9141 108.016C62.3015 110.722 58.9372 111.147 56.9304 111.399C56.0034 111.517 55.0683 111.558 54.1345 111.523C53.8502 113.567 53.8638 115.641 54.1749 117.68C54.473 119.354 54.9954 120.98 55.7281 122.514C56.3836 124.005 57.0639 125.549 57.1664 128.019C57.269 130.488 56.6849 131.781 55.8772 133.542C54.988 135.415 54.2504 137.357 53.6716 139.348C53.566 139.709 53.4573 140.075 53.361 140.445C70.5228 145.096 88.8033 143.17 104.618 135.043L104.684 135.008C102.198 132.374 100.863 129.821 100.151 127.525C99.3093 124.816 98.5638 121.001 96.3271 112.962C95.2326 109.1 93.8505 105.325 92.1923 101.669C91.8351 100.868 91.2604 99.5383 90.4123 97.8111C87.6662 92.1417 85.1095 88.3611 80.72 81.6573C79.4122 79.6567 77.4954 76.7148 75.1283 73.046C78.9311 70.6502 81.81 67.0366 83.2953 62.7945C83.3693 62.5832 83.401 62.3594 83.3886 62.1358C83.3761 61.9122 83.3197 61.6933 83.2227 61.4915C83.1256 61.2898 82.9897 61.1091 82.8228 60.9598C82.6559 60.8105 82.4613 60.6956 82.25 60.6215C82.0386 60.5475 81.8148 60.5158 81.5912 60.5283C81.3677 60.5407 81.1487 60.5971 80.947 60.6942C80.7452 60.7912 80.5645 60.9271 80.4152 61.094C80.2659 61.2609 80.151 61.4556 80.077 61.6669C79.1244 64.3883 77.4763 66.8131 75.2964 68.7004C73.1165 70.5876 70.4807 71.8716 67.6509 72.4247H67.6199C66.0574 72.7195 64.469 72.8537 62.8793 72.8255C58.5488 72.7261 57.2224 71.1262 53.5008 71.8438C49.7264 72.5738 49.279 74.4346 45.8308 74.59C45.1815 74.6179 41.258 74.767 38.6392 71.8811C36.1913 69.1877 36.5113 65.432 36.5796 64.8479C37.2009 59.3619 42.4074 59.1506 50.0122 50.8438C50.9969 49.7689 54.6719 45.5938 58.4929 40.465C57.6656 39.2048 57.0711 37.8065 56.7377 36.3364C56.7222 36.2712 56.7067 36.209 56.688 36.1469C56.4426 35.3547 54.7061 29.0237 59.9157 24.5876C60.4957 24.0884 61.1291 23.655 61.8045 23.2953C61.9977 23.1932 62.2166 23.15 62.4341 23.171C62.6516 23.192 62.8583 23.2762 63.0284 23.4133C63.1479 23.5072 63.2467 23.6248 63.3185 23.7587C63.3902 23.8927 63.4335 24.0401 63.4454 24.1915C63.4574 24.343 63.4379 24.4954 63.388 24.6389C63.3381 24.7825 63.2591 24.9141 63.1558 25.0256C62.8778 25.3245 62.6359 25.655 62.4351 26.0104C62.0603 26.6411 61.7966 27.3314 61.6554 28.0513C61.5298 28.8632 61.5835 29.6927 61.8127 30.4816C62.0418 31.2705 62.4409 31.9996 62.9818 32.6179C63.2483 32.8546 63.5388 33.0628 63.8486 33.2392C64.8902 32.1875 66.1455 31.3717 67.5298 30.8472C69.325 30.1824 71.2735 30.0477 73.1432 30.4589C73.9939 30.6565 74.8134 30.9701 75.5787 31.3908C74.0845 32.3259 73.721 32.562 73.1525 33.1678ZM75.2619 35.2025C75.6098 34.8328 75.7869 34.7428 77.8403 33.4473C79.7477 32.2451 80.7076 31.6394 80.9468 31.3691C81.4728 30.738 81.8542 29.9993 82.0641 29.205C82.2739 28.4107 82.3071 27.58 82.1614 26.7715C82.0022 26.0565 81.7228 25.3737 81.3351 24.7522C81.1238 24.4013 80.8726 24.0761 80.5864 23.783C80.4812 23.6737 80.3995 23.5439 80.3466 23.4017C80.2936 23.2595 80.2705 23.1079 80.2787 22.9564C80.2868 22.8049 80.3261 22.6566 80.394 22.5209C80.4619 22.3852 80.557 22.265 80.6734 22.1676C80.8401 22.0262 81.0445 21.9367 81.2615 21.9102C81.4785 21.8836 81.6985 21.9213 81.8943 22.0185C82.578 22.3608 83.2218 22.7775 83.8141 23.2611C89.1324 27.5667 87.5419 33.9382 87.3275 34.7365C87.3089 34.8018 87.2965 34.8608 87.281 34.926C86.9504 36.5967 86.2824 38.1823 85.3176 39.5858C84.4043 40.9061 82.6181 43.4938 79.6358 43.8386C79.1761 43.8914 77.1009 44.1337 75.411 42.6768C74.8614 42.1829 74.4228 41.5781 74.124 40.9024C73.8252 40.2266 73.673 39.4952 73.6775 38.7564C73.7508 37.4173 74.3149 36.1521 75.2619 35.2025Z" fill="#ED6C0F"/>
</svg>
